<?xml version="1.0" standalone="no"?>
<!DOCTYPE svg PUBLIC "-//W3C//DTD SVG 20010904//EN"
 "http://www.w3.org/TR/2001/REC-SVG-20010904/DTD/svg10.dtd">
<svg version="1.0" xmlns="http://www.w3.org/2000/svg"
 width="769.000000pt" height="769.000000pt" viewBox="0 0 769.000000 769.000000"
 preserveAspectRatio="xMidYMid meet">

<g transform="translate(0.000000,769.000000) scale(0.100000,-0.100000)"
fill="#FFFFFF" stroke="none">
<path d="M336 7669 c-114 -27 -233 -129 -289 -246 -29 -62 -32 -77 -32 -163 0
-116 19 -175 81 -260 50 -69 139 -132 218 -155 43 -13 256 -15 1592 -15 1059
0 1575 -3 1646 -11 576 -62 1035 -491 1132 -1058 14 -85 16 -307 16 -2195 l0
-2100 -722 720 c-661 659 -729 724 -788 752 -171 82 -347 56 -485 -69 -100
-92 -151 -241 -128 -375 26 -149 -36 -81 1195 -1310 1288 -1286 1165 -1179
1358 -1179 193 0 70 -107 1358 1179 992 991 1126 1128 1153 1182 130 262 -24
564 -312 614 -84 15 -170 1 -259 -42 -59 -28 -128 -94 -787 -751 l-722 -721
-4 2140 c-3 2366 2 2190 -67 2465 -94 379 -303 737 -591 1014 -317 304 -694
491 -1149 572 -86 15 -252 17 -1735 19 -982 1 -1656 -1 -1679 -7z"/>
</g>
</svg>
